<?xml version="1.0" encoding="UTF-8" standalone="no"?>
<!-- Created with Inkscape (http://www.inkscape.org/) -->

<svg
   xmlns:dc="http://purl.org/dc/elements/1.1/"
   xmlns:cc="http://creativecommons.org/ns#"
   xmlns:rdf="http://www.w3.org/1999/02/22-rdf-syntax-ns#"
   xmlns:svg="http://www.w3.org/2000/svg"
   xmlns="http://www.w3.org/2000/svg"
   xmlns:xlink="http://www.w3.org/1999/xlink"
   xmlns:sodipodi="http://sodipodi.sourceforge.net/DTD/sodipodi-0.dtd"
   xmlns:inkscape="http://www.inkscape.org/namespaces/inkscape"
   width="1607.2814"
   height="309"
   id="svg2"
   version="1.1"
   inkscape:version="0.48.2 r9819"
   sodipodi:docname="nuvlabox_logo_red_on_transparent.svg"
   inkscape:export-filename="/Users/sixsq_rob/Dropbox/dev/design/20140121_Multimedia_image_repo_canvas/NuvlaBox/nuvlabox_logo_red_on_transparent_64px.png"
   inkscape:export-xdpi="3.6300001"
   inkscape:export-ydpi="3.6300001">
  <title
     id="title4041">NuvlaBox Logo</title>
  <defs
     id="defs4">
    <inkscape:path-effect
       effect="skeletal"
       id="path-effect3203"
       is_visible="true"
       pattern="m 0,-7 c 0,-2.76 2.24,-5 5,-5 2.76,0 5,2.24 5,5 0,2.76 -2.24,5 -5,5 -2.76,0 -5,-2.24 -5,-5 z"
       copytype="single_stretched"
       prop_scale="1"
       scale_y_rel="false"
       spacing="0"
       normal_offset="0"
       tang_offset="0"
       prop_units="false"
       vertical_pattern="false"
       fuse_tolerance="0" />
    <color-profile
       name="sRGB-IEC61966-2.1"
       xlink:href="/System/Library/ColorSync/Profiles/sRGB Profile.icc"
       id="color-profile2985" />
  </defs>
  <sodipodi:namedview
     id="base"
     pagecolor="#ffffff"
     bordercolor="#666666"
     borderopacity="1.0"
     inkscape:pageopacity="0.0"
     inkscape:pageshadow="2"
     inkscape:zoom="0.7"
     inkscape:cx="740.23336"
     inkscape:cy="88.785714"
     inkscape:document-units="px"
     inkscape:current-layer="g3973"
     showgrid="false"
     inkscape:showpageshadow="false"
     borderlayer="true"
     inkscape:window-width="1695"
     inkscape:window-height="1317"
     inkscape:window-x="45"
     inkscape:window-y="16"
     inkscape:window-maximized="0"
     fit-margin-top="10"
     fit-margin-right="10"
     fit-margin-bottom="10"
     fit-margin-left="10" />
  <metadata
     id="metadata7">
    <rdf:RDF>
      <cc:Work
         rdf:about="">
        <dc:format>image/svg+xml</dc:format>
        <dc:type
           rdf:resource="http://purl.org/dc/dcmitype/StillImage" />
        <dc:title>NuvlaBox Logo</dc:title>
        <dc:date>21jan2014</dc:date>
        <dc:creator>
          <cc:Agent>
            <dc:title>SixSq Sarl</dc:title>
          </cc:Agent>
        </dc:creator>
        <dc:publisher>
          <cc:Agent>
            <dc:title>SixSq Sarl</dc:title>
          </cc:Agent>
        </dc:publisher>
        <dc:subject>
          <rdf:Bag>
            <rdf:li>NuvlaBox.</rdf:li>
          </rdf:Bag>
        </dc:subject>
        <dc:description>Official vector version of the NuvlaBox logo.</dc:description>
      </cc:Work>
    </rdf:RDF>
  </metadata>
  <g
     inkscape:groupmode="layer"
     id="g3973"
     inkscape:label="All as path, SixSq red"
     style="display:inline"
     transform="translate(-196.35935,-345.5)"
     sodipodi:insensitive="true">
    <path
       style="font-size:340px;font-style:normal;font-variant:normal;font-weight:bold;font-stretch:normal;text-align:center;line-height:125%;letter-spacing:0px;word-spacing:0px;writing-mode:lr-tb;text-anchor:middle;fill:#aa0000;fill-opacity:1;stroke:none;font-family:Futura;-inkscape-font-specification:Futura Bold"
       d="m 864.2656,355.5 0,107.78125 -60.6875,0 -38.21875,82.375 c 21.15388,-0.0318 42.70118,-0.0498 64.5625,-0.0625 l 34.34375,-65.75 0,65.71875 c 2.55592,-2.7e-4 5.03024,0 7.59375,0 39.58455,0 78.18216,0.0636 115.625,0.125 0.912,-8.93319 4.33167,-16.57286 10.28125,-22.90625 7.2532,-7.70654 17.0098,-11.56237 29.25,-11.5625 12.2399,1.3e-4 21.8794,3.85596 28.9063,11.5625 6.1767,6.36995 9.7082,14.06265 10.625,23.0625 20.5871,0.0593 40.5908,0.14177 60.0938,0.21875 l 0,-82.78125 -61.875,0 0,17 c -6.3469,-7.47983 -14.4098,-13.14649 -24.1563,-17 -9.5201,-3.85315 -19.4798,-5.78107 -29.9064,-5.78125 -12.6933,1.8e-4 -24.37795,2.48226 -35.03115,7.46875 -10.6534,4.76017 -19.9417,11.44933 -27.875,20.0625 -7.9334,8.61348 -14.0684,18.6043 -18.375,29.9375 -1.30774,3.56 -2.39267,7.17531 -3.28125,10.875 l 0,-170.34375 -61.875,0 z m -657.90625,25.84375 0,256.34375 66.625,0 0,-157.0625 0.6875,0 52.78125,67.90625 c 32.54862,-0.60329 78.95951,-1.1461 135.90625,-1.59375 l 0,-165.59375 -66.625,0 0,156.75 -0.6875,0 -122.0625,-156.75 -66.625,0 z m 930.28135,0 0,164.75 c 23.0001,0.0952 45.4137,0.19428 66.625,0.3125 l 0,-14.78125 6.8123,0 c 9.0668,1.1e-4 16.7784,0.32011 23.125,1 6.3467,0.45344 11.8963,1.59302 16.6564,3.40625 4.7599,1.81344 8.3815,4.64677 10.875,8.5 0.521,0.69468 0.9851,1.45554 1.4063,2.25 51.513,0.37135 95.317,0.81581 129.2812,1.3125 0.506,-9.97768 3.9909,-18.41677 10.4688,-25.3125 7.2532,-7.70654 17.0098,-11.56237 29.25,-11.5625 12.2398,1.3e-4 21.8481,3.85596 28.875,11.5625 7.2532,7.48011 10.906,16.76843 10.9062,27.875 -2e-4,11.33341 -3.653,20.73882 -10.9062,28.21875 -7.0269,7.25339 -16.6352,10.87505 -28.875,10.875 -12.2402,5e-5 -21.9969,-3.62161 -29.25,-10.875 -6.5211,-6.94143 -9.9994,-15.55246 -10.4688,-25.8125 -33.4438,0.48908 -76.4763,0.91342 -126.9689,1.28125 0.2285,1.61044 0.375,3.31751 0.375,5.15625 -10e-5,6.34674 -1.6079,11.45924 -4.7811,15.3125 -2.9468,3.62673 -7.0055,6.34298 -12.2189,8.15625 -4.9866,1.58672 -10.3334,2.60922 -16,3.0625 -5.44,0.45339 -12.1292,0.6563 -20.0623,0.65625 l -8.5,0 0,-31.9375 c -21.2113,0.11822 -43.6249,0.21729 -66.625,0.3125 l 0,82.625 102.6873,0 c 12.4665,0 24.12,-1.22541 35,-3.71875 11.1067,-2.49332 20.9804,-6.58332 29.5939,-12.25 8.6131,-5.66664 15.4193,-13.02705 20.4061,-22.09375 3.079,-5.48867 5.2396,-11.62126 6.5,-18.375 0.9866,2.91766 2.1119,5.7492 3.4064,8.5 5.6666,11.56004 13.3783,21.43378 23.125,29.59375 9.7465,7.93335 20.9629,13.95126 33.6563,18.03125 12.6931,4.08 26.0714,6.09375 40.125,6.09375 14.0531,0 27.4314,-2.01375 40.125,-6.09375 6.4978,-2.16597 12.5495,-4.82294 18.1873,-7.90625 l -7.5623,8.21875 81.25,0 44.9062,-51.65625 44.875,51.65625 78.375,0 c 6.5199,4.53641 14.0411,6.8125 22.5625,6.8125 11.1066,0 20.5119,-3.85583 28.2186,-11.5625 7.7067,-7.93332 11.5624,-17.33873 11.5627,-28.21875 -2e-4,-11.10662 -3.856,-20.51203 -11.5627,-28.21875 -7.7067,-7.7066 -17.112,-11.56243 -28.2186,-11.5625 -11.1067,7e-5 -20.5122,3.8559 -28.2187,11.5625 -7.7068,7.70672 -11.5627,17.11213 -11.5627,28.21875 0,4.84128 0.7554,9.39842 2.2814,13.65625 l -69.2187,-75.1875 72.0623,-79.90625 -79.875,0 -31.2811,36.03125 -31.2812,-36.03125 -78.5627,0 70.7189,79.90625 -39.6562,43.0625 c 4.6094,-10.85129 6.9372,-22.71405 6.9373,-35.59375 -10e-5,-14.50656 -2.8335,-27.53363 -8.5,-39.09375 -5.4402,-11.78653 -13.0347,-21.66027 -22.7811,-29.59375 -9.747,-7.93317 -20.9631,-13.91983 -33.6562,-18 -12.6936,-4.30649 -26.0719,-6.46857 -40.125,-6.46875 -14.0536,1.8e-4 -27.4319,2.16226 -40.125,6.46875 -12.6935,4.08017 -23.9098,10.06683 -33.6563,18 -9.7467,7.93348 -17.4584,17.80722 -23.125,29.59375 -3.5047,7.4476 -5.8783,15.51696 -7.125,24.1875 -2.022,-5.29549 -4.6633,-10.0765 -7.9064,-14.34375 -8.6134,-11.3332 -21.7575,-18.1082 -39.4373,-20.375 l 0,-0.6875 c 9.973,-4.98652 17.1305,-11.90985 21.4373,-20.75 4.5333,-8.83983 6.7812,-19.38482 6.7814,-31.625 -2e-4,-23.34645 -6.6894,-40.22935 -20.0625,-50.65625 -13.1468,-10.65308 -31.8405,-15.96849 -56.0939,-15.96875 l -95.1873,0 z m 66.625,51 4.7812,0 c 5.6666,2.1e-4 10.5137,0.23437 14.5938,0.6875 4.3064,0.45354 8.2794,1.47604 11.9062,3.0625 3.8532,1.58687 6.8036,4.06895 8.8438,7.46875 2.2664,3.40019 3.4061,7.92727 3.4062,13.59375 -10e-5,5.21351 -1.0226,9.53767 -3.0625,12.9375 -1.8135,3.1735 -4.5297,5.65558 -8.1564,7.46875 -3.4,1.81349 -7.1387,3.07016 -11.2186,3.75 -4.0801,0.45349 -8.6071,0.65641 -13.5937,0.65625 l -7.5,0 0,-49.625 z m -730.9376,30.9375 0,83.5625 c 19.60869,-0.14738 40.05622,-0.25005 61.875,-0.375 l 0,-83.1875 -61.875,0 z m 123.75,0 0,82.875 c 19.96572,-0.0869 40.67071,-0.182 61.875,-0.25 l 0,-69.21875 36.21875,69.09375 c 21.04125,-0.0547 42.69326,-0.0586 64.65625,-0.0937 l -38.5625,-82.40625 -62.3125,0 -61.875,0 z m -266.40625,89.40625 66.0625,85 66.625,0 0,-83.46875 c -55.16669,-0.43366 -100.31711,-0.95069 -132.6875,-1.53125 z m 142.65625,1.59375 0,14.0625 c -2e-5,14.05339 2.2479,25.94088 6.78125,35.6875 4.75997,9.52003 11.24621,17.23169 19.40625,23.125 8.38661,5.66667 18.11201,9.75667 29.21875,12.25 11.33325,2.72 23.80616,4.0625 37.40625,4.0625 13.59988,0 25.9557,-1.3425 37.0625,-4.0625 11.33317,-2.49333 21.08983,-6.58333 29.25,-12.25 8.38648,-5.66665 14.84147,-13.37831 19.375,-23.125 4.7598,-9.74662 7.1248,-21.63411 7.125,-35.6875 l 0,-13.09375 c -21.2043,-0.068 -41.90927,-0.16307 -61.875,-0.25 l 0,1.4375 c -1.4e-4,12.24007 -2.27931,21.64548 -6.8125,28.21875 -4.3068,6.34672 -12.33846,9.5313 -24.125,9.53125 -11.78677,5e-5 -19.93551,-3.18453 -24.46875,-9.53125 -4.30675,-6.57327 -6.46883,-15.97868 -6.46875,-28.21875 l 0,-1.75 c -21.81883,-0.12495 -42.26627,-0.25887 -61.875,-0.40625 z m 654.3126,0.8125 c -19.4931,0.077 -39.4866,0.12821 -60.0627,0.1875 -0.8701,9.29139 -4.414,17.15644 -10.6561,23.59375 -7.0269,7.25339 -16.6664,10.87505 -28.9063,10.875 -12.2401,5e-5 -21.9968,-3.62161 -29.25,-10.875 -6.00675,-6.3941 -9.44061,-14.19625 -10.3125,-23.40625 -37.43324,0.0613 -76.02007,0.0937 -115.59375,0.0937 -2.56351,0 -5.03783,2.7e-4 -7.59375,0 l 0,82.125 61.875,0 0,-63.375 c 0.96418,3.96478 2.16768,7.88375 3.625,11.71875 4.3066,11.10671 10.4416,21.06628 18.375,29.90625 7.9333,8.61335 17.33865,15.41959 28.21875,20.40625 10.8799,4.76 22.5332,7.125 34.99995,7.125 10.8799,0 21.105,-2.13083 30.6251,-6.4375 9.5198,-4.30666 16.8803,-10.55874 22.0936,-18.71875 l 0.6877,0 0,19.375 61.875,0 0,-82.59375 z m -427.4376,0.25 43.15625,82.34375 39.46875,0 42.90625,-82.15625 c -43.27229,-0.0283 -85.32628,-0.0863 -125.53125,-0.1875 z"
       id="path3995"
       inkscape:connector-curvature="0" />
  </g>
</svg>
